<?xml version="1.0" encoding="utf-8"?>
<!-- Generator: Adobe Illustrator 21.0.0, SVG Export Plug-In . SVG Version: 6.00 Build 0)  -->
<svg version="1.1" id="Camada_1" xmlns="http://www.w3.org/2000/svg" xmlns:xlink="http://www.w3.org/1999/xlink" x="0px" y="0px"
	 viewBox="0 0 500 250" style="enable-background:new 0 0 500 250;" xml:space="preserve">
<style type="text/css">
	.st0{fill:#3375BB;}
	.st1{fill:#66AFE2;}
	.st2{fill:#268BDD;}
	.st3{fill:#FFFFFF;}
</style>
<g>
	<path class="st0" d="M78.3,207.8l54.7-54.7V50.2c0-5.7-4.8-10.5-10.5-10.5h-105C11.8,39.7,7,44.5,7,50.2v147
		c0,5.7,4.8,10.5,10.5,10.5h60.8V207.8z"/>
	<path class="st1" d="M77.7,166.5v41.4h0.6l54.7-54.7v-0.6H91.6C84,152.6,77.7,158.8,77.7,166.5z"/>
	<path class="st1" d="M7,50.4c0-5,4.2-10.5,10.5-10.5h105c5.7,0,10.5,4.4,10.5,11.2v45H7V50.4z"/>
	<rect x="7" y="93.7" class="st2" width="126" height="59.1"/>
	<g>
		<path d="M203.3,131.3l4.8,9.6c-5,3.5-11.4,5.5-18.2,5.5c-16.3,0-25.9-11.3-25.9-25.5c0-14.2,9.6-25.5,25.9-25.5
			c6.8,0,13.2,2,18.2,5.5l-4.8,9.6c-3.7-2.5-8.8-3.9-13.4-3.9c-8.5,0-13.8,6.6-13.8,14.3s5.3,14.3,13.8,14.3
			C194.5,135.2,199.6,133.8,203.3,131.3z"/>
		<path d="M211,127.9c0-10.1,8-18.5,18.5-18.5c10.5,0,18.5,8.4,18.5,18.5c0,10.2-8,18.5-18.5,18.5C219.1,146.4,211,138.1,211,127.9z
			 M238.1,127.9c0-4.7-3.8-8.7-8.5-8.7c-4.8,0-8.5,4.1-8.5,8.7c0,4.9,3.7,8.8,8.5,8.8C234.3,136.7,238.1,132.8,238.1,127.9z"/>
		<path d="M278.8,126.7c0-4.3-1.9-7.2-5.9-7.2c-2.8,0-6.9,2.7-8.7,6.6v19.3h-10.5v-35h10.5v5c3.1-3.8,7.6-5.8,12.7-5.8
			c7.6,0,12.4,5.8,12.4,14.1v21.7h-10.5V126.7z"/>
		<path d="M310.7,132.3c0,3.8,2.2,5.2,4.8,5.2c2,0,3.9-0.3,5.9-1v8c-2.7,1.1-6.3,1.5-9.5,1.5c-6.2,0-11.7-2.7-11.7-12.3V119h-6.6
			v-8.6h6.6v-8.2h10.5v8.2h10.7v8.6h-10.7V132.3z"/>
		<path d="M348.1,119.4c-4.8,0-9.6,2.3-11.2,7.8v18.2h-10.5v-35h10.5v6.5c2.9-4.5,6.7-7.3,11.2-7.3V119.4z"/>
		<path d="M350.6,136.5c0-9.9,10.8-11.8,24.2-11.8v-1.7c0-4.6-3.2-5.6-6.6-5.6c-3.5,0-8,1.4-11.2,3.7l-5.1-6
			c4.4-3.7,10.3-5.7,16.7-5.7c10.3,0,16.7,3.9,16.7,12v24h-10.5v-5.1c-3.7,4.3-8.5,6.2-12.2,6.2
			C355.3,146.4,350.6,143.1,350.6,136.5z M374.8,134.1v-4.2c-5.8,0.1-12.7,0.3-12.7,5.5c0,2.4,1.9,3.8,4.6,3.8
			C369.6,139.2,372.4,137.5,374.8,134.1z"/>
		<path d="M406.7,132.3c0,3.8,2.2,5.2,4.8,5.2c2,0,3.9-0.3,5.9-1v8c-2.7,1.1-6.3,1.5-9.5,1.5c-6.2,0-11.7-2.7-11.7-12.3V119h-6.6
			v-8.6h6.6v-8.2h10.5v8.2h10.7v8.6h-10.7V132.3z"/>
		<path d="M421.1,127.9c0-10.1,8-18.5,18.5-18.5c10.5,0,18.5,8.4,18.5,18.5c0,10.2-8,18.5-18.5,18.5
			C429.2,146.4,421.1,138.1,421.1,127.9z M448.2,127.9c0-4.7-3.8-8.7-8.5-8.7c-4.8,0-8.5,4.1-8.5,8.7c0,4.9,3.7,8.8,8.5,8.8
			C444.4,136.7,448.2,132.8,448.2,127.9z"/>
		<path d="M463.8,120.4c0-6.1,4.9-11,14.7-11c5.7,0,9.9,1.7,13.9,5.2l-4.4,6.2c-3.2-2.7-6.2-3.6-9.5-3.6c-3.1,0-5.2,1.2-5.2,3.1
			c0,5.5,19.9,1.3,19.9,14.2c0,7.8-6,11.9-15.1,11.9c-6.2,0-11.2-1.7-15.8-5.6l4.3-6.5c4,3,7.6,4.4,11.5,4.4c3.1,0,5.4-1.4,5.4-3.6
			C483.4,129.7,463.8,135,463.8,120.4z"/>
	</g>
	<g>
		<path d="M179.5,52.9c-3.3,0-5.9,1-7.6,3.1c-1.8,2.1-2.6,4.9-2.6,8.6c0,1.7,0.2,3.3,0.6,4.8c0.4,1.4,1,2.7,1.9,3.7
			c0.8,1,1.8,1.8,3.1,2.4c1.2,0.6,2.7,0.9,4.3,0.9c1,0,1.9,0,2.7-0.1c0.7-0.1,1.3-0.2,1.8-0.3V64.3h5.9v15.5c-0.8,0.3-2.2,0.7-4.1,1
			c-1.9,0.4-4.1,0.6-6.7,0.6c-2.3,0-4.5-0.4-6.4-1.1c-1.9-0.7-3.6-1.8-4.9-3.3c-1.4-1.4-2.4-3.2-3.1-5.3c-0.7-2.1-1.1-4.5-1.1-7.2
			c0-2.7,0.4-5.1,1.2-7.2c0.8-2.1,2-3.8,3.4-5.3c1.4-1.4,3.1-2.5,5-3.3c1.9-0.7,4-1.1,6.2-1.1c1.5,0,2.8,0.1,4,0.3
			c1.2,0.2,2.2,0.4,3,0.7c0.8,0.2,1.5,0.5,2.1,0.8c0.5,0.3,0.9,0.5,1.1,0.6l-1.8,4.8c-0.9-0.6-2.1-1-3.5-1.4
			C182.5,53.1,181,52.9,179.5,52.9z"/>
		<path d="M194.6,68.7c0-2.1,0.3-4,1-5.6c0.6-1.6,1.5-3,2.5-4c1.1-1.1,2.3-1.9,3.6-2.4c1.4-0.5,2.8-0.8,4.2-0.8c3.4,0,6,1,7.9,3.1
			c1.9,2.1,2.8,5.2,2.8,9.3c0,0.3,0,0.7,0,1c0,0.4,0,0.7-0.1,1h-16.1c0.2,2,0.8,3.5,2.1,4.5c1.2,1.1,3,1.6,5.3,1.6
			c1.4,0,2.6-0.1,3.8-0.4c1.1-0.2,2-0.5,2.7-0.8l0.7,4.6c-0.3,0.2-0.7,0.3-1.3,0.5c-0.5,0.2-1.2,0.3-1.9,0.5
			c-0.7,0.1-1.5,0.3-2.3,0.3s-1.6,0.1-2.5,0.1c-2.1,0-4-0.3-5.6-1c-1.6-0.6-2.9-1.5-3.9-2.7c-1-1.1-1.8-2.5-2.3-4
			C194.9,72.2,194.6,70.5,194.6,68.7z M211,66.2c0-0.8-0.1-1.5-0.3-2.2c-0.2-0.7-0.5-1.3-1-1.8c-0.4-0.5-0.9-0.9-1.5-1.2
			c-0.6-0.3-1.3-0.4-2.2-0.4c-0.9,0-1.6,0.2-2.3,0.5c-0.7,0.3-1.2,0.8-1.7,1.3c-0.5,0.5-0.8,1.1-1,1.8c-0.2,0.7-0.4,1.4-0.5,2.1H211
			z"/>
		<path d="M236.5,61.5c-0.5-0.2-1.1-0.3-1.9-0.5c-0.8-0.2-1.8-0.3-2.9-0.3c-0.6,0-1.3,0.1-2,0.2c-0.7,0.1-1.2,0.2-1.5,0.3v19.5h-5.6
			V57.5c1.1-0.4,2.4-0.8,4.1-1.1c1.6-0.4,3.4-0.5,5.4-0.5c0.4,0,0.8,0,1.3,0.1c0.5,0,1,0.1,1.5,0.2c0.5,0.1,1,0.2,1.4,0.3
			c0.5,0.1,0.8,0.2,1.1,0.3L236.5,61.5z"/>
		<path d="M249.5,55.8c1.9,0,3.4,0.2,4.7,0.7c1.3,0.5,2.3,1.1,3.1,2c0.8,0.8,1.3,1.9,1.6,3.1c0.3,1.2,0.5,2.5,0.5,3.9v14.8
			c-0.9,0.2-2.2,0.4-3.9,0.7c-1.8,0.3-3.7,0.4-5.9,0.4c-1.5,0-2.8-0.1-4-0.4c-1.2-0.3-2.2-0.7-3.1-1.4c-0.9-0.6-1.5-1.4-2-2.4
			c-0.5-1-0.7-2.2-0.7-3.7c0-1.4,0.3-2.6,0.8-3.5c0.5-1,1.3-1.7,2.2-2.4c0.9-0.6,2-1,3.2-1.3c1.2-0.3,2.5-0.4,3.8-0.4
			c0.6,0,1.3,0,2,0.1c0.7,0.1,1.4,0.2,2.2,0.4v-0.9c0-0.7-0.1-1.3-0.2-1.9c-0.2-0.6-0.4-1.1-0.8-1.6c-0.4-0.5-0.9-0.8-1.5-1
			c-0.6-0.2-1.4-0.4-2.4-0.4c-1.3,0-2.5,0.1-3.6,0.3c-1.1,0.2-2,0.4-2.7,0.7l-0.7-4.6c0.7-0.2,1.8-0.5,3.1-0.7
			C246.5,55.9,247.9,55.8,249.5,55.8z M249.9,76.8c1.7,0,3.1-0.1,4-0.3v-6.2c-0.3-0.1-0.8-0.2-1.4-0.3c-0.6-0.1-1.2-0.1-2-0.1
			c-0.6,0-1.3,0-1.9,0.1c-0.6,0.1-1.2,0.3-1.7,0.5c-0.5,0.2-0.9,0.6-1.2,1c-0.3,0.5-0.5,1-0.5,1.7c0,1.3,0.4,2.3,1.3,2.8
			C247.4,76.5,248.5,76.8,249.9,76.8z"/>
		<path d="M286.9,80c-1.1,0.3-2.5,0.7-4.2,0.9c-1.7,0.3-3.5,0.4-5.3,0.4c-1.9,0-3.7-0.3-5.2-0.9c-1.5-0.6-2.8-1.4-3.9-2.5
			c-1.1-1.1-1.9-2.4-2.5-4c-0.6-1.6-0.9-3.3-0.9-5.3c0-1.9,0.2-3.7,0.7-5.2c0.5-1.6,1.2-2.9,2.1-4c0.9-1.1,2.1-2,3.4-2.6
			c1.3-0.6,2.9-0.9,4.6-0.9c1.2,0,2.2,0.1,3.1,0.4c0.9,0.3,1.7,0.6,2.3,0.9V45.5l5.6-0.9V80z M270.7,68.5c0,2.5,0.6,4.4,1.8,5.8
			c1.2,1.4,2.8,2.1,4.9,2.1c0.9,0,1.7,0,2.3-0.1c0.6-0.1,1.2-0.2,1.6-0.3v-14c-0.5-0.3-1.2-0.7-2-1c-0.8-0.3-1.7-0.4-2.6-0.4
			c-2.1,0-3.6,0.7-4.5,2.1C271.2,64.2,270.7,66.1,270.7,68.5z"/>
		<path d="M316.1,68.5c0,1.9-0.3,3.7-0.8,5.3c-0.6,1.6-1.4,2.9-2.4,4.1c-1,1.1-2.3,2-3.7,2.6c-1.4,0.6-3,0.9-4.8,0.9
			c-1.7,0-3.3-0.3-4.8-0.9c-1.4-0.6-2.7-1.5-3.7-2.6c-1-1.1-1.8-2.5-2.4-4.1c-0.6-1.6-0.9-3.3-0.9-5.3c0-1.9,0.3-3.7,0.9-5.2
			c0.6-1.6,1.4-2.9,2.4-4c1-1.1,2.3-2,3.7-2.6c1.4-0.6,3-0.9,4.7-0.9c1.7,0,3.3,0.3,4.7,0.9c1.4,0.6,2.7,1.5,3.7,2.6
			c1,1.1,1.8,2.5,2.4,4C315.8,64.9,316.1,66.6,316.1,68.5z M310.3,68.5c0-2.4-0.5-4.3-1.6-5.8c-1-1.4-2.5-2.1-4.4-2.1
			c-1.9,0-3.3,0.7-4.4,2.1c-1,1.4-1.6,3.3-1.6,5.8c0,2.5,0.5,4.4,1.6,5.8c1,1.4,2.5,2.1,4.4,2.1c1.9,0,3.3-0.7,4.4-2.1
			C309.8,72.9,310.3,71,310.3,68.5z"/>
		<path d="M335.8,61.5c-0.5-0.2-1.1-0.3-1.9-0.5c-0.8-0.2-1.8-0.3-2.9-0.3c-0.6,0-1.3,0.1-2,0.2c-0.7,0.1-1.2,0.2-1.5,0.3v19.5h-5.6
			V57.5c1.1-0.4,2.4-0.8,4.1-1.1c1.6-0.4,3.4-0.5,5.4-0.5c0.4,0,0.8,0,1.3,0.1c0.5,0,1,0.1,1.5,0.2c0.5,0.1,1,0.2,1.4,0.3
			c0.5,0.1,0.8,0.2,1.1,0.3L335.8,61.5z"/>
		<path d="M372.2,80c-1.1,0.3-2.5,0.7-4.2,0.9c-1.7,0.3-3.5,0.4-5.3,0.4c-1.9,0-3.7-0.3-5.2-0.9c-1.5-0.6-2.8-1.4-3.9-2.5
			c-1.1-1.1-1.9-2.4-2.5-4c-0.6-1.6-0.9-3.3-0.9-5.3c0-1.9,0.2-3.7,0.7-5.2c0.5-1.6,1.2-2.9,2.1-4c0.9-1.1,2.1-2,3.4-2.6
			c1.3-0.6,2.9-0.9,4.6-0.9c1.2,0,2.2,0.1,3.1,0.4c0.9,0.3,1.7,0.6,2.3,0.9V45.5l5.6-0.9V80z M356,68.5c0,2.5,0.6,4.4,1.8,5.8
			c1.2,1.4,2.8,2.1,4.9,2.1c0.9,0,1.7,0,2.3-0.1c0.6-0.1,1.2-0.2,1.6-0.3v-14c-0.5-0.3-1.2-0.7-2-1s-1.7-0.4-2.6-0.4
			c-2.1,0-3.6,0.7-4.5,2.1C356.4,64.2,356,66.1,356,68.5z"/>
		<path d="M378,68.7c0-2.1,0.3-4,1-5.6c0.6-1.6,1.5-3,2.5-4c1.1-1.1,2.3-1.9,3.6-2.4c1.4-0.5,2.8-0.8,4.2-0.8c3.4,0,6,1,7.9,3.1
			c1.9,2.1,2.8,5.2,2.8,9.3c0,0.3,0,0.7,0,1c0,0.4,0,0.7-0.1,1h-16.1c0.2,2,0.8,3.5,2.1,4.5c1.2,1.1,3,1.6,5.3,1.6
			c1.4,0,2.6-0.1,3.8-0.4c1.1-0.2,2-0.5,2.7-0.8l0.7,4.6c-0.3,0.2-0.7,0.3-1.3,0.5c-0.5,0.2-1.2,0.3-1.9,0.5
			c-0.7,0.1-1.5,0.3-2.3,0.3c-0.8,0.1-1.6,0.1-2.5,0.1c-2.1,0-4-0.3-5.6-1c-1.6-0.6-2.9-1.5-3.9-2.7c-1-1.1-1.8-2.5-2.3-4
			C378.2,72.2,378,70.5,378,68.7z M394.3,66.2c0-0.8-0.1-1.5-0.3-2.2c-0.2-0.7-0.5-1.3-1-1.8c-0.4-0.5-0.9-0.9-1.5-1.2
			c-0.6-0.3-1.3-0.4-2.2-0.4c-0.9,0-1.6,0.2-2.3,0.5c-0.7,0.3-1.2,0.8-1.7,1.3c-0.5,0.5-0.8,1.1-1,1.8c-0.2,0.7-0.4,1.4-0.5,2.1
			H394.3z"/>
	</g>
	<rect x="160.5" y="163.5" class="st0" width="307.6" height="47.5"/>
	<g>
		<path class="st3" d="M341.6,184.5c-0.3-0.1-0.7-0.2-1.2-0.3c-0.5-0.1-1.1-0.2-1.8-0.2c-0.4,0-0.8,0-1.3,0.1
			c-0.4,0.1-0.8,0.1-0.9,0.2v12.4h-3.6V182c0.7-0.3,1.6-0.5,2.6-0.7c1-0.2,2.2-0.3,3.5-0.3c0.2,0,0.5,0,0.8,0c0.3,0,0.6,0.1,0.9,0.1
			c0.3,0,0.6,0.1,0.9,0.2c0.3,0.1,0.5,0.1,0.7,0.2L341.6,184.5z"/>
		<path class="st3" d="M343.9,189.1c0-1.4,0.2-2.6,0.6-3.6c0.4-1,0.9-1.9,1.6-2.6c0.7-0.7,1.4-1.2,2.3-1.5c0.9-0.3,1.8-0.5,2.7-0.5
			c2.1,0,3.8,0.7,5,2c1.2,1.3,1.8,3.3,1.8,5.9c0,0.2,0,0.4,0,0.7c0,0.2,0,0.5,0,0.7h-10.2c0.1,1.2,0.5,2.2,1.3,2.9
			c0.8,0.7,1.9,1,3.4,1c0.9,0,1.7-0.1,2.4-0.2c0.7-0.2,1.3-0.3,1.7-0.5l0.5,2.9c-0.2,0.1-0.5,0.2-0.8,0.3c-0.3,0.1-0.7,0.2-1.2,0.3
			c-0.4,0.1-0.9,0.2-1.4,0.2c-0.5,0.1-1,0.1-1.6,0.1c-1.4,0-2.6-0.2-3.6-0.6c-1-0.4-1.8-1-2.5-1.7c-0.7-0.7-1.1-1.6-1.5-2.6
			C344,191.3,343.9,190.2,343.9,189.1z M354.3,187.5c0-0.5-0.1-1-0.2-1.4c-0.1-0.4-0.3-0.8-0.6-1.2c-0.3-0.3-0.6-0.6-1-0.8
			c-0.4-0.2-0.8-0.3-1.4-0.3c-0.6,0-1,0.1-1.5,0.3s-0.8,0.5-1.1,0.8c-0.3,0.3-0.5,0.7-0.7,1.2c-0.2,0.4-0.3,0.9-0.3,1.3H354.3z"/>
		<path class="st3" d="M375.6,189c0,1.2-0.2,2.3-0.5,3.3c-0.3,1-0.7,1.8-1.3,2.6c-0.6,0.7-1.3,1.3-2.2,1.7c-0.9,0.4-1.8,0.6-2.9,0.6
			c-0.7,0-1.4-0.1-2-0.3c-0.6-0.2-1.1-0.4-1.5-0.6v6h-3.6v-20.5c0.7-0.2,1.6-0.4,2.7-0.6c1.1-0.2,2.2-0.3,3.4-0.3
			c1.2,0,2.3,0.2,3.3,0.6c1,0.4,1.8,0.9,2.5,1.6c0.7,0.7,1.2,1.6,1.6,2.6C375.4,186.7,375.6,187.8,375.6,189z M371.9,189.1
			c0-1.6-0.4-2.8-1.1-3.7c-0.7-0.9-1.9-1.3-3.5-1.3c-0.3,0-0.7,0-1.1,0c-0.4,0-0.7,0.1-1.1,0.2v8.9c0.3,0.2,0.7,0.4,1.3,0.6
			c0.5,0.2,1.1,0.3,1.7,0.3c1.3,0,2.3-0.4,2.9-1.3C371.6,191.8,371.9,190.6,371.9,189.1z"/>
		<path class="st3" d="M393.4,189c0,1.2-0.2,2.3-0.5,3.4c-0.4,1-0.9,1.9-1.5,2.6c-0.7,0.7-1.4,1.3-2.4,1.7c-0.9,0.4-1.9,0.6-3,0.6
			c-1.1,0-2.1-0.2-3-0.6c-0.9-0.4-1.7-0.9-2.3-1.7c-0.7-0.7-1.2-1.6-1.5-2.6c-0.4-1-0.5-2.1-0.5-3.4c0-1.2,0.2-2.3,0.5-3.3
			c0.4-1,0.9-1.9,1.5-2.6c0.7-0.7,1.4-1.3,2.4-1.6c0.9-0.4,1.9-0.6,3-0.6c1.1,0,2.1,0.2,3,0.6c0.9,0.4,1.7,0.9,2.4,1.6
			c0.7,0.7,1.2,1.6,1.5,2.6C393.2,186.7,393.4,187.8,393.4,189z M389.7,189c0-1.5-0.3-2.8-1-3.7c-0.7-0.9-1.6-1.3-2.8-1.3
			c-1.2,0-2.1,0.5-2.8,1.3c-0.7,0.9-1,2.1-1,3.7c0,1.6,0.3,2.8,1,3.7c0.7,0.9,1.6,1.4,2.8,1.4c1.2,0,2.1-0.5,2.8-1.4
			C389.3,191.8,389.7,190.6,389.7,189z"/>
		<path class="st3" d="M405.9,184.5c-0.3-0.1-0.7-0.2-1.2-0.3c-0.5-0.1-1.1-0.2-1.8-0.2c-0.4,0-0.8,0-1.3,0.1
			c-0.4,0.1-0.8,0.1-0.9,0.2v12.4h-3.6V182c0.7-0.3,1.6-0.5,2.6-0.7c1-0.2,2.2-0.3,3.5-0.3c0.2,0,0.5,0,0.8,0c0.3,0,0.6,0.1,0.9,0.1
			c0.3,0,0.6,0.1,0.9,0.2c0.3,0.1,0.5,0.1,0.7,0.2L405.9,184.5z"/>
		<path class="st3" d="M408.8,177.2l3.6-0.6v4.7h5.5v3h-5.5v6.3c0,1.2,0.2,2.1,0.6,2.7c0.4,0.5,1.1,0.8,2,0.8c0.7,0,1.2-0.1,1.7-0.2
			c0.5-0.1,0.9-0.3,1.2-0.4l0.6,2.8c-0.4,0.2-1,0.4-1.6,0.5c-0.7,0.2-1.5,0.3-2.4,0.3c-1.1,0-2-0.1-2.8-0.4
			c-0.7-0.3-1.3-0.7-1.8-1.3c-0.4-0.6-0.7-1.2-0.9-2c-0.2-0.8-0.3-1.7-0.3-2.7V177.2z"/>
		<path class="st3" d="M420.3,189.1c0-1.4,0.2-2.6,0.6-3.6c0.4-1,0.9-1.9,1.6-2.6c0.7-0.7,1.4-1.2,2.3-1.5c0.9-0.3,1.8-0.5,2.7-0.5
			c2.1,0,3.8,0.7,5,2c1.2,1.3,1.8,3.3,1.8,5.9c0,0.2,0,0.4,0,0.7c0,0.2,0,0.5,0,0.7H424c0.1,1.2,0.5,2.2,1.3,2.9
			c0.8,0.7,1.9,1,3.4,1c0.9,0,1.7-0.1,2.4-0.2c0.7-0.2,1.3-0.3,1.7-0.5l0.5,2.9c-0.2,0.1-0.5,0.2-0.8,0.3c-0.3,0.1-0.7,0.2-1.2,0.3
			c-0.4,0.1-0.9,0.2-1.4,0.2c-0.5,0.1-1,0.1-1.6,0.1c-1.4,0-2.6-0.2-3.6-0.6c-1-0.4-1.8-1-2.5-1.7c-0.7-0.7-1.1-1.6-1.5-2.6
			C420.4,191.3,420.3,190.2,420.3,189.1z M430.7,187.5c0-0.5-0.1-1-0.2-1.4s-0.3-0.8-0.6-1.2c-0.3-0.3-0.6-0.6-1-0.8
			c-0.4-0.2-0.8-0.3-1.4-0.3c-0.6,0-1,0.1-1.5,0.3s-0.8,0.5-1.1,0.8c-0.3,0.3-0.5,0.7-0.7,1.2c-0.2,0.4-0.3,0.9-0.3,1.3H430.7z"/>
		<path class="st3" d="M442.1,176.7c0,0.7-0.2,1.2-0.7,1.6c-0.4,0.4-0.9,0.6-1.5,0.6c-0.6,0-1.1-0.2-1.6-0.6s-0.7-0.9-0.7-1.6
			c0-0.7,0.2-1.2,0.7-1.6c0.4-0.4,1-0.6,1.6-0.6c0.6,0,1.1,0.2,1.5,0.6C441.9,175.5,442.1,176,442.1,176.7z M441.7,196.8h-3.6v-15.5
			h3.6V196.8z"/>
	</g>
	<g>
		<path class="st3" d="M190.1,179.7c0.5,0,1,0,1.4,0.1c0.4,0.1,0.7,0.2,0.9,0.3L192,182c-0.2-0.1-0.5-0.2-0.7-0.2
			c-0.3-0.1-0.6-0.1-0.9-0.1c-0.4,0-0.7,0.1-0.9,0.2c-0.2,0.1-0.4,0.3-0.6,0.4c-0.1,0.2-0.3,0.4-0.3,0.7c-0.1,0.3-0.1,0.6-0.1,0.9
			v0.7h3.5v1.9h-3.5v7.9h-2.3v-10.4c0-1.3,0.3-2.2,1-3C187.8,180.1,188.8,179.7,190.1,179.7z"/>
		<path class="st3" d="M192.9,189.4c0-0.9,0.1-1.6,0.4-2.3c0.3-0.6,0.6-1.2,1-1.6c0.4-0.4,0.9-0.8,1.5-1c0.5-0.2,1.1-0.3,1.7-0.3
			c1.3,0,2.4,0.4,3.1,1.2c0.8,0.8,1.1,2.1,1.1,3.7c0,0.1,0,0.3,0,0.4c0,0.2,0,0.3,0,0.4h-6.4c0.1,0.8,0.3,1.4,0.8,1.8
			c0.5,0.4,1.2,0.6,2.1,0.6c0.5,0,1,0,1.5-0.1c0.5-0.1,0.8-0.2,1.1-0.3l0.3,1.8c-0.1,0.1-0.3,0.1-0.5,0.2c-0.2,0.1-0.5,0.1-0.7,0.2
			c-0.3,0.1-0.6,0.1-0.9,0.1c-0.3,0-0.7,0.1-1,0.1c-0.9,0-1.6-0.1-2.2-0.4c-0.6-0.3-1.2-0.6-1.6-1.1c-0.4-0.5-0.7-1-0.9-1.6
			C193,190.8,192.9,190.1,192.9,189.4z M199.4,188.4c0-0.3,0-0.6-0.1-0.9c-0.1-0.3-0.2-0.5-0.4-0.7c-0.2-0.2-0.4-0.4-0.6-0.5
			c-0.2-0.1-0.5-0.2-0.9-0.2c-0.3,0-0.7,0.1-0.9,0.2c-0.3,0.1-0.5,0.3-0.7,0.5c-0.2,0.2-0.3,0.5-0.4,0.7c-0.1,0.3-0.2,0.6-0.2,0.8
			H199.4z"/>
		<path class="st3" d="M209.6,186.5c-0.2-0.1-0.4-0.1-0.8-0.2c-0.3-0.1-0.7-0.1-1.1-0.1c-0.2,0-0.5,0-0.8,0.1
			c-0.3,0-0.5,0.1-0.6,0.1v7.8h-2.3v-9.3c0.4-0.2,1-0.3,1.6-0.5c0.7-0.1,1.4-0.2,2.2-0.2c0.1,0,0.3,0,0.5,0c0.2,0,0.4,0,0.6,0.1
			c0.2,0,0.4,0.1,0.6,0.1s0.3,0.1,0.4,0.1L209.6,186.5z"/>
		<path class="st3" d="M217.1,186.5c-0.2-0.1-0.4-0.1-0.8-0.2c-0.3-0.1-0.7-0.1-1.1-0.1c-0.2,0-0.5,0-0.8,0.1
			c-0.3,0-0.5,0.1-0.6,0.1v7.8h-2.3v-9.3c0.4-0.2,1-0.3,1.6-0.5c0.7-0.1,1.4-0.2,2.2-0.2c0.1,0,0.3,0,0.5,0c0.2,0,0.4,0,0.6,0.1
			c0.2,0,0.4,0.1,0.6,0.1s0.3,0.1,0.4,0.1L217.1,186.5z"/>
		<path class="st3" d="M222.3,184.2c0.7,0,1.4,0.1,1.9,0.3s0.9,0.4,1.2,0.8c0.3,0.3,0.5,0.7,0.7,1.2c0.1,0.5,0.2,1,0.2,1.6v5.9
			c-0.3,0.1-0.9,0.2-1.6,0.3c-0.7,0.1-1.5,0.2-2.4,0.2c-0.6,0-1.1-0.1-1.6-0.2c-0.5-0.1-0.9-0.3-1.2-0.5c-0.3-0.2-0.6-0.6-0.8-1
			c-0.2-0.4-0.3-0.9-0.3-1.5c0-0.6,0.1-1,0.3-1.4c0.2-0.4,0.5-0.7,0.9-0.9c0.4-0.2,0.8-0.4,1.3-0.5c0.5-0.1,1-0.2,1.5-0.2
			c0.2,0,0.5,0,0.8,0c0.3,0,0.6,0.1,0.9,0.2v-0.4c0-0.3,0-0.5-0.1-0.7c-0.1-0.2-0.2-0.4-0.3-0.6c-0.2-0.2-0.4-0.3-0.6-0.4
			c-0.3-0.1-0.6-0.1-1-0.1c-0.5,0-1,0-1.4,0.1c-0.4,0.1-0.8,0.2-1.1,0.3l-0.3-1.8c0.3-0.1,0.7-0.2,1.2-0.3
			C221.1,184.3,221.7,184.2,222.3,184.2z M222.5,192.6c0.7,0,1.2,0,1.6-0.1V190c-0.1,0-0.3-0.1-0.5-0.1c-0.2,0-0.5-0.1-0.8-0.1
			c-0.2,0-0.5,0-0.8,0.1c-0.3,0-0.5,0.1-0.7,0.2c-0.2,0.1-0.4,0.2-0.5,0.4c-0.1,0.2-0.2,0.4-0.2,0.7c0,0.5,0.2,0.9,0.5,1.1
			C221.5,192.5,221.9,192.6,222.5,192.6z"/>
		<path class="st3" d="M234.6,189.1c0-1-0.1-1.8-0.4-2.2c-0.3-0.5-0.7-0.7-1.4-0.7c-0.2,0-0.5,0-0.8,0.1c-0.3,0-0.5,0.1-0.7,0.1v7.9
			H229v-9.4c0.4-0.1,1-0.2,1.7-0.4c0.7-0.1,1.4-0.2,2.2-0.2c0.7,0,1.2,0.1,1.7,0.3c0.4,0.2,0.8,0.4,1.1,0.7c0.1-0.1,0.3-0.2,0.5-0.3
			c0.2-0.1,0.4-0.2,0.7-0.3c0.3-0.1,0.5-0.2,0.8-0.2c0.3-0.1,0.6-0.1,0.9-0.1c0.8,0,1.4,0.1,1.9,0.3c0.5,0.2,0.9,0.5,1.2,0.9
			c0.3,0.4,0.5,0.9,0.6,1.4c0.1,0.6,0.2,1.2,0.2,1.8v5.5h-2.3v-5.1c0-1-0.1-1.8-0.4-2.2c-0.2-0.5-0.7-0.7-1.4-0.7
			c-0.4,0-0.7,0.1-1,0.2c-0.3,0.1-0.6,0.2-0.7,0.3c0.1,0.3,0.2,0.6,0.2,1c0,0.3,0.1,0.7,0.1,1.1v5.4h-2.3V189.1z"/>
		<path class="st3" d="M244.6,189.4c0-0.9,0.1-1.6,0.4-2.3c0.3-0.6,0.6-1.2,1-1.6c0.4-0.4,0.9-0.8,1.5-1c0.5-0.2,1.1-0.3,1.7-0.3
			c1.3,0,2.4,0.4,3.1,1.2c0.8,0.8,1.1,2.1,1.1,3.7c0,0.1,0,0.3,0,0.4c0,0.2,0,0.3,0,0.4H247c0.1,0.8,0.3,1.4,0.8,1.8
			c0.5,0.4,1.2,0.6,2.1,0.6c0.5,0,1,0,1.5-0.1c0.5-0.1,0.8-0.2,1.1-0.3l0.3,1.8c-0.1,0.1-0.3,0.1-0.5,0.2c-0.2,0.1-0.5,0.1-0.7,0.2
			c-0.3,0.1-0.6,0.1-0.9,0.1c-0.3,0-0.7,0.1-1,0.1c-0.9,0-1.6-0.1-2.2-0.4c-0.6-0.3-1.2-0.6-1.6-1.1c-0.4-0.5-0.7-1-0.9-1.6
			C244.7,190.8,244.6,190.1,244.6,189.4z M251.2,188.4c0-0.3,0-0.6-0.1-0.9c-0.1-0.3-0.2-0.5-0.4-0.7c-0.2-0.2-0.4-0.4-0.6-0.5
			c-0.2-0.1-0.5-0.2-0.9-0.2c-0.3,0-0.7,0.1-0.9,0.2c-0.3,0.1-0.5,0.3-0.7,0.5c-0.2,0.2-0.3,0.5-0.4,0.7c-0.1,0.3-0.2,0.6-0.2,0.8
			H251.2z"/>
		<path class="st3" d="M255.8,184.8c0.4-0.1,1-0.2,1.7-0.4c0.7-0.1,1.5-0.2,2.3-0.2c0.8,0,1.5,0.1,2,0.3c0.5,0.2,1,0.5,1.3,0.9
			c0.3,0.4,0.5,0.9,0.7,1.4c0.1,0.6,0.2,1.2,0.2,1.8v5.5h-2.3v-5.1c0-0.5,0-1-0.1-1.3c-0.1-0.4-0.2-0.7-0.3-0.9
			c-0.2-0.2-0.4-0.4-0.6-0.5c-0.3-0.1-0.6-0.2-1-0.2c-0.3,0-0.6,0-0.9,0.1c-0.3,0-0.5,0.1-0.7,0.1v7.9h-2.3V184.8z"/>
		<path class="st3" d="M266.6,181.9l2.3-0.4v2.9h3.5v1.9h-3.5v4c0,0.8,0.1,1.3,0.4,1.7c0.2,0.3,0.7,0.5,1.3,0.5c0.4,0,0.8,0,1.1-0.1
			c0.3-0.1,0.6-0.2,0.8-0.2l0.4,1.8c-0.3,0.1-0.6,0.2-1,0.3c-0.4,0.1-0.9,0.2-1.5,0.2c-0.7,0-1.3-0.1-1.7-0.3
			c-0.5-0.2-0.8-0.5-1.1-0.8c-0.3-0.4-0.5-0.8-0.6-1.3c-0.1-0.5-0.2-1.1-0.2-1.7V181.9z"/>
		<path class="st3" d="M277.8,184.2c0.7,0,1.4,0.1,1.9,0.3c0.5,0.2,0.9,0.4,1.2,0.8c0.3,0.3,0.5,0.7,0.7,1.2c0.1,0.5,0.2,1,0.2,1.6
			v5.9c-0.3,0.1-0.9,0.2-1.6,0.3c-0.7,0.1-1.5,0.2-2.4,0.2c-0.6,0-1.1-0.1-1.6-0.2c-0.5-0.1-0.9-0.3-1.2-0.5c-0.3-0.2-0.6-0.6-0.8-1
			c-0.2-0.4-0.3-0.9-0.3-1.5c0-0.6,0.1-1,0.3-1.4c0.2-0.4,0.5-0.7,0.9-0.9c0.4-0.2,0.8-0.4,1.3-0.5c0.5-0.1,1-0.2,1.5-0.2
			c0.2,0,0.5,0,0.8,0c0.3,0,0.6,0.1,0.9,0.2v-0.4c0-0.3,0-0.5-0.1-0.7c-0.1-0.2-0.2-0.4-0.3-0.6c-0.2-0.2-0.4-0.3-0.6-0.4
			c-0.3-0.1-0.6-0.1-1-0.1c-0.5,0-1,0-1.4,0.1c-0.4,0.1-0.8,0.2-1.1,0.3l-0.3-1.8c0.3-0.1,0.7-0.2,1.2-0.3
			C276.5,184.3,277.1,184.2,277.8,184.2z M277.9,192.6c0.7,0,1.2,0,1.6-0.1V190c-0.1,0-0.3-0.1-0.5-0.1c-0.2,0-0.5-0.1-0.8-0.1
			c-0.2,0-0.5,0-0.8,0.1c-0.3,0-0.5,0.1-0.7,0.2c-0.2,0.1-0.4,0.2-0.5,0.4c-0.1,0.2-0.2,0.4-0.2,0.7c0,0.5,0.2,0.9,0.5,1.1
			C276.9,192.5,277.4,192.6,277.9,192.6z"/>
		<path class="st3" d="M297.6,189.3c0,0.7-0.1,1.4-0.3,2.1c-0.2,0.6-0.5,1.2-0.8,1.6c-0.4,0.4-0.8,0.8-1.4,1
			c-0.5,0.2-1.2,0.4-1.8,0.4c-0.5,0-0.9-0.1-1.3-0.2c-0.4-0.1-0.7-0.2-1-0.4v3.8h-2.3v-12.9c0.5-0.1,1-0.2,1.7-0.4
			c0.7-0.1,1.4-0.2,2.1-0.2c0.8,0,1.5,0.1,2.1,0.4c0.6,0.2,1.1,0.6,1.6,1c0.4,0.4,0.8,1,1,1.6C297.5,187.9,297.6,188.6,297.6,189.3z
			 M295.3,189.4c0-1-0.2-1.8-0.7-2.3c-0.5-0.6-1.2-0.8-2.2-0.8c-0.2,0-0.4,0-0.7,0c-0.2,0-0.5,0.1-0.7,0.1v5.6
			c0.2,0.1,0.5,0.3,0.8,0.4c0.3,0.1,0.7,0.2,1.1,0.2c0.8,0,1.4-0.3,1.8-0.8C295.1,191.1,295.3,190.3,295.3,189.4z"/>
		<path class="st3" d="M308.7,189.3c0,0.8-0.1,1.5-0.3,2.1c-0.2,0.6-0.5,1.2-1,1.6c-0.4,0.4-0.9,0.8-1.5,1c-0.6,0.2-1.2,0.4-1.9,0.4
			c-0.7,0-1.3-0.1-1.9-0.4c-0.6-0.2-1.1-0.6-1.5-1c-0.4-0.4-0.7-1-1-1.6c-0.2-0.6-0.3-1.3-0.3-2.1c0-0.8,0.1-1.5,0.3-2.1
			c0.2-0.6,0.6-1.2,1-1.6c0.4-0.4,0.9-0.8,1.5-1c0.6-0.2,1.2-0.4,1.9-0.4c0.7,0,1.3,0.1,1.9,0.4c0.6,0.2,1.1,0.6,1.5,1
			c0.4,0.4,0.7,1,1,1.6C308.6,187.9,308.7,188.6,308.7,189.3z M306.4,189.3c0-1-0.2-1.7-0.6-2.3c-0.4-0.6-1-0.8-1.7-0.8
			c-0.7,0-1.3,0.3-1.7,0.8c-0.4,0.6-0.6,1.3-0.6,2.3c0,1,0.2,1.8,0.6,2.3c0.4,0.6,1,0.9,1.7,0.9c0.7,0,1.3-0.3,1.7-0.9
			C306.2,191.1,306.4,190.3,306.4,189.3z"/>
		<path class="st3" d="M316.6,186.5c-0.2-0.1-0.4-0.1-0.8-0.2c-0.3-0.1-0.7-0.1-1.1-0.1c-0.2,0-0.5,0-0.8,0.1s-0.5,0.1-0.6,0.1v7.8
			h-2.3v-9.3c0.4-0.2,1-0.3,1.6-0.5c0.7-0.1,1.4-0.2,2.2-0.2c0.1,0,0.3,0,0.5,0c0.2,0,0.4,0,0.6,0.1c0.2,0,0.4,0.1,0.6,0.1
			c0.2,0,0.3,0.1,0.4,0.1L316.6,186.5z"/>
	</g>
</g>
</svg>
